<svg xmlns="http://www.w3.org/2000/svg" xmlns:xlink="http://www.w3.org/1999/xlink" fill="none" version="1.1" width="122.076171875" height="24" viewBox="0 0 122.076171875 24"><path d="M96.34558916784668,14.619039660503388C96.24975446784669,14.487067660503387,96.24975446784669,14.309532660503388,96.34558916784668,14.177560660503387L100.32202916784668,8.703868560503388C100.72737516784667,8.146129760503388,100.32831016784668,7.363725360503388,99.63860716784669,7.363725360503388L97.35266586784668,7.363725360503388C97.08244226784669,7.363725360503388,96.82791616784668,7.492554860503388,96.66924376784668,7.710936760503388L94.22619386784667,11.073078360503388L92.92532296784668,12.864126660503388C92.73050876784669,13.132783660503387,92.30631136784667,12.994527660503387,92.30631136784667,12.663025660503388L92.30631136784667,3.3244403005033876C92.30631136784667,2.8578254305033877,91.92924476784668,2.4807626605033875,91.46263436784668,2.4807626605033875L89.24267708784669,2.4807626605033875C88.77606668784668,2.4807626605033875,88.39900016784668,2.8578254305033877,88.39900016784668,3.3244403005033876L88.39900016784668,20.589199660503386C88.39900016784668,21.05581266050339,88.77606668784668,21.432874660503387,89.24267708784669,21.432874660503387L91.46263436784668,21.432874660503387C91.92924476784668,21.432874660503387,92.30631136784667,21.05581266050339,92.30631136784667,20.589199660503386L92.30631136784667,16.132001660503388C92.30631136784667,15.800500660503387,92.73050876784669,15.662245660503388,92.92532296784668,15.930901660503388L94.22619386784667,17.72195066050339L96.66924376784668,21.084091660503386C96.82792666784668,21.302473660503388,97.08244226784669,21.431304660503386,97.35266586784668,21.431304660503386L99.63860716784669,21.431304660503386C100.32831916784667,21.431304660503386,100.72580116784668,20.64889966050339,100.32202916784668,20.091159660503386L96.34558916784668,14.617468660503388L96.34558916784668,14.619039660503388Z" fill="#040000" fill-opacity="1" style="mix-blend-mode:passthrough"/><path d="M104.47296329624024,1.8459588270244263C103.14853167624024,1.7422666177244264,102.05191060124024,2.8388904347244264,102.15559863954023,4.163323084724427C102.23729863024023,5.204959084724426,103.08254837624024,6.048636584724426,104.12418489624024,6.1303335847244265C105.44861649624023,6.234025584724426,106.54523799624023,5.137401984724426,106.43997719624024,3.8129691847244263C106.35827729624023,2.7713333347244262,105.51459999624024,1.9276558087244262,104.47296329624024,1.8443878465244263L104.47296329624024,1.8459588270244263Z" fill="#040000" fill-opacity="1" style="mix-blend-mode:passthrough"/><rect x="102.34435687959194" y="7.365200161933899" width="3.9073126316070557" height="14.067580223083496" rx="1.9536563158035278" fill="#040000" fill-opacity="1" style="mix-blend-mode:passthrough"/><path d="M121.23383087402344,2.4807626605033875L119.01387387402343,2.4807626605033875C118.54726287402343,2.4807626605033875,118.17019787402344,2.8578254305033877,118.17019787402344,3.3244403005033876L118.17019787402344,7.575822060503388C118.17019787402344,7.817771160503387,117.92510607402343,7.984306560503388,117.70044137402344,7.893183360503388C116.69965457402344,7.481556560503387,115.58574437402343,7.289883360503388,114.41214127402344,7.395146060503388C110.84261937402344,7.714078160503387,108.10891122402344,10.625315860503388,108.01150413622344,14.205840660503387C107.90467085402344,18.179139660503388,111.09399077402344,21.432874660503387,115.04215197402344,21.432874660503387C118.99031387402344,21.432874660503387,122.07594587402343,18.284401660503388,122.07594587402343,14.399084660503387C122.07594587402343,14.386514660503387,122.07437187402344,14.373946660503387,122.07437187402344,14.361377660503388L122.07594587402343,14.361377660503388L122.07594587402343,3.3244403005033876C122.07594587402343,2.8578254305033877,121.69887887402344,2.4807626605033875,121.23226787402344,2.4807626605033875L121.23383087402344,2.4807626605033875ZM115.20710517402344,17.520849660503387C113.35164307402344,17.615114660503387,111.82925227402343,16.091154660503385,111.92195107402344,14.235691660503388C112.00207827402343,12.647315660503388,113.29351327402344,11.357446860503387,114.88189697402343,11.275750360503388C116.73735907402343,11.181485360503387,118.25974987402344,12.705445660503388,118.16705087402343,14.560909660503388C118.08692387402344,16.149285660503388,116.79548927402344,17.439153660503386,115.20710517402344,17.520849660503387Z" fill="#040000" fill-opacity="1" style="mix-blend-mode:passthrough"/><path d="M69.3731857475586,15.259970107769012C69.2239317475586,14.977173107769012,69.2914917475586,14.633102107769012,69.5255837475586,14.416291107769013C71.0071237475586,13.041584107769012,71.8822247475586,11.024298807769012,71.7062637475586,8.805913607769012C71.4391747475586,5.440629407769013,68.70233174755859,2.7336333077690123,65.33547594755859,2.4979691247690123C61.30719184755859,2.2167432277690127,57.952903747558594,5.401351607769012,57.952903747558594,9.368365007769013L57.952903747558594,20.60640310776901C57.952903747558594,21.057304107769014,58.31896668755859,21.423370107769014,58.7698749275586,21.423370107769014L61.46744684755859,21.423370107769014C61.918349947558596,21.423370107769014,62.28441764755859,21.057304107769014,62.28441764755859,20.60640310776901L62.28441764755859,16.146066107769013C62.28441764755859,16.017237107769013,62.298556847558594,15.891548107769012,62.323695147558595,15.769002107769012C62.485517547558594,14.977171107769012,63.14537954755859,14.351876107769012,63.97648524755859,14.292173107769013C64.8531541475586,14.229329107769013,65.6418461475586,14.794924107769013,65.8712248475586,15.630747107769013L66.0173358475586,16.161777107769012L67.2946367475586,20.821642107769012C67.3920440475586,21.176708107769013,67.71412084755859,21.421803107769012,68.08175674755859,21.421803107769012L71.2710757475586,21.421803107769012C71.88537474755859,21.421803107769012,72.2797217475586,20.768225107769013,71.99378074755859,20.22462910776901L69.3747647475586,15.256826107769012L69.3731857475586,15.259970107769012ZM65.2144989475586,12.204191407769013C63.34489724755859,12.439855707769013,61.77380224755859,10.868761207769012,62.0094666475586,8.999158107769013C62.1697168475586,7.726572207769013,63.19878674755859,6.697505207769012,64.4713740475586,6.537254007769013C66.3394079475586,6.301589707769013,67.9104986475586,7.872684207769012,67.67640594755859,9.740715207769012C67.51615614755859,11.013301107769012,66.48865894755859,12.042369107769012,65.2144989475586,12.202619707769012L65.2144989475586,12.204191407769013Z" fill="#040000" fill-opacity="1" style="mix-blend-mode:passthrough"/><path d="M79.93754289621582,7.366800382871399C75.94696359621582,7.292958758871399,72.69793648321583,10.541982072871399,72.77178291381583,14.532561872871398C72.84091146321582,18.2937633728714,75.90925879621582,21.3621093728714,79.67045979621582,21.431238372871398C83.66103949621582,21.505080372871397,86.91006149621582,18.2560553728714,86.83622449621582,14.2654763728714C86.76709649621583,10.5042758728714,83.69718049621582,7.435928918871399,79.93754289621582,7.366800382871399ZM79.96739439621582,17.520781372871397C78.11193179621583,17.6150483728714,76.58954069621582,16.0910874728714,76.68223479621582,14.235624872871398C76.76236219621582,12.647248372871399,78.05380199621582,11.3573802728714,79.64217619621581,11.275683972871398C81.49763869621582,11.181418572871399,83.02003049621582,12.705379572871399,82.92733049621582,14.5608430728714C82.84720449621582,16.1492186728714,81.55576899621582,17.4390873728714,79.96739439621582,17.520781372871397Z" fill="#040000" fill-opacity="1" style="mix-blend-mode:passthrough"/><path d="M7.3181586,15.093505C7.8397617,15.407723,7.9811602,16.099005,7.6260924,16.593901C7.0432167,17.404585,6.366075,18.285969,5.5930967,19.238052C4.7431345,20.285975,3.8853171,21.263195,3.0180728,22.171286C2.6331546,22.57506,1.9984328,22.60648,1.5773792,22.238842L0.35663891,21.175211C-0.098978519,20.779295,-0.12097382,20.08173,0.30636388,19.654392C1.1091932,18.853134,1.8711739,17.998457,2.5907354,17.090364C3.299299,16.196413,3.9245944,15.344879,4.4681931,14.537337C4.7792697,14.073865,5.3951387,13.934038,5.8727512,14.221547L7.316587,15.093505L7.3181586,15.093505ZM21.692102,13.107641L14.788713,13.107641C14.575044,13.107641,14.403796,13.280462,14.403796,13.492558L14.403796,20.325249C14.403796,21.274189,14.278108,22.011032,14.028304,22.53735C13.778501,23.063667,13.376299,23.439159,12.824844,23.662254C12.27339,23.886919,11.505125,23.998466,10.52162,23.998466C9.7282171,23.998466,8.9410982,23.968616,8.1571226,23.910486C7.7015057,23.875923,7.3260136,23.538137,7.2301769,23.090376L6.9128156,21.608835C6.7682757,20.933264,7.3118734,20.304825,8.0015841,20.351959C8.4807682,20.384953,8.9238167,20.402237,9.3323011,20.402237C9.6952248,20.402237,9.9575968,20.36767,10.120991,20.298542C10.284384,20.229414,10.388076,20.122581,10.432067,19.974897C10.474486,19.828787,10.496483,19.582125,10.496483,19.238054L10.496483,13.492561C10.496483,13.278893,10.323663,13.107643,10.111565,13.107643L2.4163435,13.107643C1.7973322,13.107643,1.315006,12.571899,1.3809921,11.956031L2.4053457,2.293798C2.4603341,1.7753367,2.8892426,1.3794211,3.4108462,1.36371C6.2183924,1.2835841,9.1327715,1.1186193,12.152416,0.8688153C15.062082,0.62843782,17.613539,0.34406975,19.806787,0.012568819C20.350388,-0.069128089,20.860992,0.28279707,20.978825,0.82011139L21.330751,2.4351964C21.461151,3.0290704,21.057379,3.608804,20.454079,3.6889298C18.578192,3.9387336,16.463499,4.1665425,14.105287,4.3739271C11.385722,4.6143045,8.7965574,4.8091207,6.339366,4.9630876C6.1539764,4.9740853,6.0047226,5.1170545,5.9827275,5.3008733L5.5286813,9.0777845C5.5004015,9.3071642,5.6810775,9.5098352,5.9120278,9.5098352L10.111565,9.5098352C10.325233,9.5098352,10.496482,9.3370152,10.496482,9.124917L10.496482,6.5671754C10.496482,5.9921551,10.963097,5.5255394,11.538116,5.5255394L13.362157,5.5255394C13.93718,5.5255394,14.403793,5.9921551,14.403793,6.5671754L14.403793,9.124917C14.403793,9.3385859,14.576613,9.5098352,14.788712,9.5098352L21.692101,9.5098352C22.26712,9.5098352,22.733736,9.9764509,22.733736,10.551471L22.733736,12.064435C22.733736,12.639456,22.26712,13.10607,21.692101,13.10607L21.692102,13.107641ZM17.787931,14.248256C18.216841,13.908899,18.834282,13.956032,19.203489,14.361375C19.787935,15.002381,20.502783,15.813066,21.349602,16.793428C22.256124,17.84292,23.066809,18.802858,23.780087,19.670101C24.146151,20.116293,24.078594,20.774582,23.630833,21.139076L22.243557,22.265553C21.79108,22.633186,21.128077,22.559345,20.768299,22.100586C20.14143,21.297756,19.415586,20.400663,18.593903,19.40773C17.772221,18.41637,17.030664,17.528702,16.366091,16.744726C15.985888,16.295393,16.053444,15.622964,16.515347,15.256898L17.787931,14.248256Z" fill="#040000" fill-opacity="1" style="mix-blend-mode:passthrough"/><path d="M49.564611539794925,10.059681072638798L49.564611539794925,11.082464272638799C49.564611539794925,11.657485272638798,49.09799553979492,12.124099272638798,48.52297553979492,12.124099272638798L47.46562553979492,12.124099272638798C47.25195853979493,12.124099272638798,47.08070753979492,12.296919272638798,47.08070753979492,12.509017272638797L47.08070753979492,19.937151272638797C47.08070753979492,21.4202632726388,46.80890453979492,22.468183272638797,46.26530853979492,23.080910272638796C45.72171053979493,23.693634272638796,44.76020253979492,24.000000272638797,43.380781539794924,24.000000272638797C42.51353853979492,24.000000272638797,41.48918153979492,23.9465852726388,40.30458053979492,23.8413222726388C39.84424953979492,23.800472272638796,39.46404353979492,23.4595452726388,39.374491539794924,23.0054972726388L39.00371453979492,21.129610272638796C38.991144539794924,21.068338272638798,38.93772753979492,21.0227772726388,38.87488353979492,21.0227772726388L29.416894639794922,21.0227772726388C28.841873639794922,21.0227772726388,28.375258439794923,20.556162272638797,28.375258439794923,19.9811422726388L28.375258439794923,14.197944272638798C28.375258439794923,13.622923272638797,28.841873639794922,13.156309272638797,29.416894639794922,13.156309272638797L40.01235653979492,13.156309272638797C40.58737453979492,13.156309272638797,41.05399153979492,13.622924272638798,41.05399153979492,14.197944272638798L41.05399153979492,20.666138272638797C41.05399153979492,20.735266272638796,41.10740653979492,20.791826272638797,41.17653553979492,20.798109272638797L42.11447953979492,20.867237272638796C42.63137053979492,20.884519272638798,42.98172153979492,20.768259272638797,43.16240153979492,20.518455272638796C43.34307653979492,20.268652272638796,43.434202539794924,19.883734272638797,43.434202539794924,19.3668422726388L43.434202539794924,12.507443272638797C43.434202539794924,12.293774272638798,43.261381539794925,12.122527272638798,43.04928253979492,12.122527272638798L27.244070839794922,12.122527272638798C26.669049799794923,12.122527272638798,26.202434539794922,11.655911272638798,26.202434539794922,11.080891272638798L26.202434539794922,10.058108472638798C26.202434539794922,9.483087672638797,26.669049799794923,9.016471972638797,27.244070839794922,9.016471972638797L28.53079773979492,9.016471972638797L28.21814913979492,8.205787772638798C27.980914739794922,7.589919172638798,28.37211563979492,6.9112058726387975,29.024121239794923,6.804371472638798C30.474240739794922,6.565565172638798,31.641565339794923,6.312618872638798,32.52766223979492,6.040819772638797C33.52687883979492,5.736027372638798,34.28728773979492,5.369962272638798,34.807319639794926,4.942625172638798C34.87644863979492,4.8860650726387975,34.83717063979492,4.772946472638798,34.74761673979492,4.772946472638798L28.458526339794922,4.772946472638798C27.88350513979492,4.772946472638798,27.41688993979492,4.3063317726387975,27.41688993979492,3.7313109726387976L27.41688993979492,2.812220472638798C27.41688993979492,2.2372000726387977,27.88350513979492,1.7705847726387978,28.458526339794922,1.7705847726387978L35.907085439794926,1.7705847726387978C35.97778413979492,1.7705847726387978,36.03591723979492,1.7124543726387977,36.03905673979492,1.6417550726387977C36.046913139794924,1.4327995726387979,36.05319593979492,1.2442682726387977,36.057909939794925,1.0730189726387978C36.07362173979492,0.5105671626387978,36.53552053979492,0.06280527263879776,37.09954653979492,0.06280527263879776L38.68635153979492,0.06280527263879776C39.267657539794925,0.06280527263879776,39.737415539794924,0.5404180026387977,39.72798953979492,1.1217228726387978C39.724846539794925,1.3133964726387977,39.72013253979492,1.4862167726387978,39.71541953979492,1.6370420726387978C39.71227653979492,1.7108833726387978,39.77197953979492,1.7721559726387976,39.84739153979492,1.7721559726387976L47.25981353979492,1.7721559726387976C47.83483553979492,1.7721559726387976,48.30145053979492,2.2387712726387976,48.30145053979492,2.813791872638798L48.30145053979492,3.7328818726387976C48.30145053979492,4.307902872638798,47.83483553979492,4.774517172638798,47.25981353979492,4.774517172638798L40.88588153979492,4.774517172638798C40.77747553979492,4.774517172638798,40.75233853979492,4.925342672638798,40.85603053979492,4.958335472638797C42.199315539794924,5.3903866726387974,45.50332653979493,6.454016772638798,46.43498753979492,6.771378172638798C47.047714539794924,6.980334372638798,47.32422853979492,7.690468372638798,47.01158353979493,8.259204972638798L46.59524353979492,9.018042672638797L48.52926053979492,9.018042672638797C49.10428253979492,9.018042672638797,49.57089653979492,9.484658372638798,49.57089653979492,10.059678172638797L49.564611539794925,10.059681072638798ZM32.38154933979492,17.8413122726388L37.09797553979492,17.8413122726388C37.31007353979492,17.8413122726388,37.48132353979492,17.6700632726388,37.48132353979492,17.457964272638797L37.48132353979492,16.6739882726388C37.48132353979492,16.4603192726388,37.30850253979492,16.289072272638798,37.09640453979492,16.289072272638798L32.383122439794924,16.289072272638798C32.169453139794925,16.289072272638798,31.998204239794923,16.4618912726388,31.998204239794923,16.6739882726388L31.998204239794923,17.454822272638797C31.998204239794923,17.668491272638796,32.17102573979492,17.839741272638797,32.383122439794924,17.839741272638797L32.38154933979492,17.8413122726388ZM33.31634993979492,9.019616272638798L43.303798539794926,9.019616272638798C40.992720539794924,8.191649572638799,39.09483553979492,7.519221372638798,37.61172453979492,7.0007596726387975C36.61093853979492,7.846008872638798,35.179670339794924,8.518436572638798,33.31634993979492,9.019616272638798Z" fill="#040000" fill-opacity="1" style="mix-blend-mode:passthrough"/></svg>